<?xml version="1.0" encoding="utf-8"?>
<svg width="650" height="250" xmlns="http://www.w3.org/2000/svg" xmlns:bx="https://boxy-svg.com">
  <g>
    <path d="M 209.176 578.241 C 207.565 578.241 206.135 577.171 205.618 575.582 C 202.047 564.6 190.2 534.688 178.447 528.247 C 174.659 526.171 171.212 525.118 168.212 525.118 C 162.894 525.118 159.888 528.412 157.694 530.818 L 157.082 531.482 C 153.988 534.788 148.2 542.823 148.141 542.906 C 147.465 543.841 146.424 544.412 145.3 544.465 C 144.176 544.523 143.094 544.041 142.341 543.165 C 142.182 542.976 125.729 524.059 110.129 523.912 L 109.871 523.912 C 104.765 523.912 101.006 525.376 98.694 528.276 C 94.724 533.247 95.724 541.041 96.129 543.312 C 97.647 551.923 103.976 562.947 104.041 563.053 C 104.865 564.482 104.729 566.3 103.706 567.582 C 102.688 568.865 100.994 569.329 99.5 568.741 C 97.088 567.794 40.341 544.947 32.788 498.188 C 27.629 466.229 49.518 436.765 94.429 415.212 C 110.359 407.559 137.406 399.947 138.547 399.629 C 140.153 399.176 141.859 399.888 142.724 401.371 C 143.594 402.859 143.418 404.759 142.3 406.047 C 141.429 407.047 121.124 430.941 138.012 450.141 C 143.141 455.971 149.565 459.059 156.582 459.059 C 170.312 459.059 182.641 447.647 184.076 437.829 C 186.7 419.988 187.041 396.006 187.041 395.759 C 187.071 393.994 188.218 392.465 189.859 392.023 C 191.506 391.582 193.218 392.341 194.059 393.876 L 203.4 411.012 L 209.094 410.894 L 214.941 411.012 L 224.282 393.876 C 225.118 392.347 226.841 391.588 228.482 392.023 C 230.118 392.465 231.276 393.994 231.3 395.759 C 231.3 396.006 231.641 419.988 234.259 437.829 C 235.706 447.647 248.029 459.059 261.759 459.059 C 268.776 459.059 275.2 455.971 280.329 450.141 C 297.288 430.871 276.924 407.047 276.047 406.047 C 274.924 404.759 274.753 402.859 275.618 401.371 C 276.482 399.888 278.188 399.176 279.794 399.629 C 280.941 399.947 307.982 407.565 323.912 415.212 C 368.824 436.765 390.718 466.229 385.559 498.188 C 378 544.947 321.259 567.794 318.841 568.741 C 317.347 569.329 315.659 568.865 314.635 567.582 C 313.612 566.306 313.482 564.482 314.306 563.053 C 314.371 562.947 320.7 551.894 322.218 543.312 C 322.618 541.041 323.618 533.247 319.647 528.276 C 317.341 525.376 313.576 523.912 308.471 523.912 L 308.218 523.912 C 292.612 524.059 276.165 542.976 276 543.165 C 275.253 544.035 274.182 544.523 273.041 544.465 C 271.924 544.412 270.882 543.841 270.206 542.906 C 270.147 542.823 264.353 534.782 261.259 531.482 L 260.653 530.823 C 258.459 528.418 255.453 525.118 250.135 525.118 C 247.135 525.118 243.688 526.171 239.894 528.247 C 228.129 534.7 216.294 564.606 212.724 575.582 C 212.212 577.171 210.782 578.241 209.176 578.241 Z" style="stroke: rgb(0, 0, 0); fill: none; stroke-width: 4px;"/>
    <path d="M 210 610 C 156.941 610 107 597.741 69.382 575.494 C 31.088 552.841 10 522.482 10 490 C 10 457.518 31.088 427.159 69.382 404.506 C 107.006 382.253 156.941 370 210 370 C 263.059 370 312.994 382.259 350.618 404.506 C 388.912 427.159 410 457.523 410 490 C 410 522.476 388.912 552.841 350.618 575.488 C 312.994 597.747 263.059 610 210 610 Z" style="fill: none; stroke: rgb(0, 0, 0); stroke-width: 4px;"/>
  </g>
</svg>