<?xml version="1.0" encoding="iso-8859-1"?>
<!-- Generator: Adobe Illustrator 19.0.0, SVG Export Plug-In . SVG Version: 6.00 Build 0)  -->
<svg version="1.1" id="Capa_1" xmlns="http://www.w3.org/2000/svg" xmlns:xlink="http://www.w3.org/1999/xlink" x="0px" y="0px"
	 viewBox="0 0 490 490" style="enable-background:new 0 0 490 490;" xml:space="preserve">
<path id="XMLID_875_" d="M357.322,135.606c-5.858-5.857-5.858-15.355,0-21.213l20-20c5.857-5.857,15.355-5.857,21.213,0
	c5.858,5.857,5.858,15.355,0,21.213l-20,20c-2.929,2.929-6.768,4.394-10.606,4.394S360.251,138.535,357.322,135.606z M465,40
	c3.839,0,7.678-1.465,10.606-4.394l5-5c5.858-5.857,5.858-15.355,0-21.213c-5.857-5.857-15.355-5.857-21.213,0l-5,5
	c-5.858,5.857-5.858,15.355,0,21.213C457.322,38.535,461.161,40,465,40z M460,475c0,8.284-6.716,15-15,15H45
	c-8.284,0-15-6.716-15-15s6.716-15,15-15h31.587l91.95-150.463C146.775,306.394,130,287.618,130,265c0-24.813,20.187-45,45-45
	h10.952l12.905-161.312C193.636,56.342,190,51.096,190,45c0-8.284,6.716-15,15-15h9.834c0.101-0.002,0.2-0.002,0.3,0H230V15
	c0-8.284,6.716-15,15-15s15,6.716,15,15v15h14.865c0.102-0.002,0.202-0.002,0.302,0H285c8.284,0,15,6.716,15,15
	c0,6.096-3.636,11.342-8.857,13.688L304.048,220H315c24.813,0,45,20.187,45,45c0,22.618-16.775,41.394-38.537,44.537L413.412,460
	H445C453.284,460,460,466.716,460,475z M216.048,220h57.904l-12.8-160h-32.304L216.048,220z M175,280h140c8.271,0,15-6.729,15-15
	s-6.729-15-15-15H175c-8.271,0-15,6.729-15,15S166.729,280,175,280z M303.027,460l-6.641-9.962
	C288.021,437.491,274.024,430,258.944,430h-27.889c-15.08,0-29.078,7.491-37.443,20.038L186.972,460H303.027z M378.254,460
	l-91.666-150h-83.175l-91.667,150h39.17l17.735-26.603C182.594,412.485,205.922,400,231.056,400h27.889
	c25.133,0,48.462,12.485,62.403,33.397L339.083,460H378.254z M114.394,135.606C117.322,138.535,121.161,140,125,140
	s7.678-1.465,10.606-4.394c5.858-5.857,5.858-15.355,0-21.213l-20-20c-5.857-5.857-15.355-5.857-21.213,0
	c-5.858,5.857-5.858,15.355,0,21.213L114.394,135.606z M475,230h-20c-8.284,0-15,6.716-15,15s6.716,15,15,15h20
	c8.284,0,15-6.716,15-15S483.284,230,475,230z M14.394,35.606C17.322,38.535,21.161,40,25,40s7.678-1.465,10.606-4.394
	c5.858-5.857,5.858-15.355,0-21.213l-5-5c-5.857-5.857-15.355-5.857-21.213,0c-5.858,5.857-5.858,15.355,0,21.213L14.394,35.606z
	 M50,245c0-8.284-6.716-15-15-15H15c-8.284,0-15,6.716-15,15s6.716,15,15,15h20C43.284,260,50,253.284,50,245z"/>
<g>
</g>
<g>
</g>
<g>
</g>
<g>
</g>
<g>
</g>
<g>
</g>
<g>
</g>
<g>
</g>
<g>
</g>
<g>
</g>
<g>
</g>
<g>
</g>
<g>
</g>
<g>
</g>
<g>
</g>
</svg>
