<?xml version="1.0" encoding="iso-8859-1"?>
<!-- Generator: Adobe Illustrator 19.0.0, SVG Export Plug-In . SVG Version: 6.00 Build 0)  -->
<svg version="1.1" id="Layer_1" xmlns="http://www.w3.org/2000/svg" xmlns:xlink="http://www.w3.org/1999/xlink" x="0px" y="0px"
	 viewBox="0 0 511.999 511.999" style="enable-background:new 0 0 511.999 511.999;" xml:space="preserve">
<g>
	<g>
		<path d="M255.999,0C125.421,0,19.188,106.232,19.188,236.811c0,130.578,106.232,236.81,236.811,236.81
			c0.512,0,1.026-0.01,1.538-0.014c8.986,22.469,30.962,38.392,56.6,38.392c33.606,0,60.946-27.34,60.946-60.945v-62.996
			c0-5.025-0.781-9.868-2.223-14.423c18.079-18.807,28.339-44.072,28.339-70.285c0-5.114-4.143-9.257-9.257-9.257H207.723
			c-5.112,0-9.257,4.143-9.257,9.257c0,34.181,17.057,65.839,45.628,84.679c0.207,0.137,0.427,0.24,0.641,0.358
			c5.306,3.795,8.457,9.958,8.457,16.646v46.021c0,1.352,0.06,2.688,0.147,4.019c-119.147-1.432-215.638-98.782-215.638-218.262
			C37.702,116.442,135.63,18.514,255.999,18.514s218.297,97.928,218.297,218.297c0,54.313-20.073,106.366-56.521,146.569
			c-3.434,3.787-3.147,9.642,0.642,13.076c3.786,3.434,9.642,3.146,13.076-0.642c39.542-43.616,61.319-100.085,61.319-159.003
			C492.81,106.232,386.578,0,255.999,0z M217.495,312.608h164.668v0.001c-1.832,16.187-8.43,31.531-18.886,44.008
			c-8.789-10.079-21.71-16.468-36.103-16.468h-64.724c-0.651,0-1.285,0.069-1.897,0.199c-10.535,0.674-20.983,3.203-30.704,7.344
			C223.181,337.177,218.901,325.218,217.495,312.608z M242.191,362.74c6.671-2.287,13.675-3.641,20.702-3.979
			c0.325-0.016,0.643-0.048,0.957-0.096h63.323c16.209,0,29.395,13.187,29.395,29.395v62.996h0.002
			c0,23.396-19.035,42.43-42.431,42.43c-19.292,0-35.608-12.948-40.742-30.606c-0.1-0.691-0.281-1.352-0.525-1.982
			c-0.754-3.161-1.165-6.453-1.165-9.841v-46.021c0-13.175-6.492-25.33-17.367-32.519
			C249.977,369.633,245.916,366.363,242.191,362.74z"/>
	</g>
</g>
<g>
	<g>
		<path d="M221.656,129.73c-20.418,0-37.029,16.611-37.029,37.029c0,20.418,16.611,37.029,37.029,37.029
			s37.029-16.611,37.029-37.029S242.073,129.73,221.656,129.73z M221.656,185.273c-10.209,0-18.514-8.306-18.514-18.514
			s8.306-18.514,18.514-18.514s18.514,8.306,18.514,18.514S231.865,185.273,221.656,185.273z"/>
	</g>
</g>
<g>
	<g>
		<path d="M378.01,129.73c-20.418,0-37.029,16.611-37.029,37.029c0,20.418,16.611,37.029,37.029,37.029
			c20.418,0,37.029-16.611,37.029-37.029S398.428,129.73,378.01,129.73z M378.01,185.273c-10.209,0-18.514-8.306-18.514-18.514
			s8.306-18.514,18.514-18.514s18.514,8.306,18.514,18.514S388.219,185.273,378.01,185.273z"/>
	</g>
</g>
<g>
	<g>
		<circle cx="402.899" cy="410.219" r="9.257"/>
	</g>
</g>
<g>
</g>
<g>
</g>
<g>
</g>
<g>
</g>
<g>
</g>
<g>
</g>
<g>
</g>
<g>
</g>
<g>
</g>
<g>
</g>
<g>
</g>
<g>
</g>
<g>
</g>
<g>
</g>
<g>
</g>
</svg>
