<?xml version="1.0" standalone="no"?>
<!DOCTYPE svg PUBLIC "-//W3C//DTD SVG 20010904//EN"
 "http://www.w3.org/TR/2001/REC-SVG-20010904/DTD/svg10.dtd">
<svg version="1.0" xmlns="http://www.w3.org/2000/svg"
 width="100.000000pt" height="100.000000pt" viewBox="0 0 100.000000 100.000000"
 preserveAspectRatio="xMidYMid meet">
<metadata>
Created by potrace 1.16, written by Peter Selinger 2001-2019
</metadata>
<g transform="translate(0.000000,100.000000) scale(0.006510,-0.006510)"
fill="#000000" stroke="none">
<path d="M12245 10044 c-379 -58 -674 -254 -822 -547 -127 -254 -141 -583 -36
-846 132 -330 445 -561 832 -615 139 -20 203 -20 378 -1 152 17 226 30 416 76
l127 31 0 290 0 290 29 29 c24 24 38 29 75 29 l46 0 0 50 0 50 -310 0 -310 0
0 -55 c0 -45 3 -55 17 -55 38 0 101 -41 120 -78 16 -33 18 -61 16 -256 -1
-169 -5 -221 -15 -227 -7 -5 -44 -19 -83 -31 -56 -17 -94 -21 -190 -21 -351 2
-610 180 -736 508 -107 277 -85 637 56 891 54 97 169 209 265 255 41 20 89 42
105 48 118 43 347 54 471 22 84 -22 159 -61 218 -112 42 -37 136 -167 136
-188 0 -7 27 -11 74 -11 l74 0 -5 63 c-2 34 -8 100 -14 147 -5 47 -9 103 -9
126 l0 40 -72 12 c-40 7 -109 19 -153 28 -249 47 -316 56 -490 59 -99 2 -193
1 -210 -1z"/>
<path d="M2070 9985 c0 -50 2 -55 23 -55 36 -1 111 -43 124 -70 10 -19 13
-166 13 -615 0 -626 4 -684 49 -805 27 -73 98 -169 158 -215 119 -91 269 -139
485 -156 238 -18 428 13 583 94 119 62 242 211 290 352 46 136 47 157 54 725
6 493 8 549 24 585 25 56 52 81 103 96 l44 13 0 48 0 48 -280 0 -280 0 0 -53
0 -52 53 -12 c64 -15 110 -63 128 -131 8 -32 13 -189 16 -493 4 -364 1 -469
-11 -566 -24 -181 -64 -281 -148 -364 -98 -97 -285 -144 -478 -120 -213 27
-343 126 -406 311 -18 52 -19 94 -19 682 l0 626 25 26 c13 15 44 33 70 40 l45
13 3 52 3 51 -335 0 -336 0 0 -55z"/>
<path d="M4910 9980 l0 -58 44 -6 c54 -8 106 -42 126 -81 21 -43 23 -1522 1
-1572 -17 -41 -61 -69 -123 -77 l-48 -7 0 -55 0 -54 390 0 390 0 0 50 c0 48
-1 49 -32 54 -18 3 -50 8 -70 11 -46 7 -93 46 -116 94 -14 31 -17 85 -20 400
l-3 363 258 -4 c232 -3 262 -5 298 -23 26 -13 46 -33 58 -57 17 -35 22 -38 63
-38 l44 0 0 190 0 190 -44 0 c-41 0 -46 -3 -63 -37 -10 -20 -31 -46 -46 -57
-27 -20 -44 -21 -303 -24 l-274 -3 0 361 0 360 301 0 c238 0 314 -3 370 -16
83 -19 142 -60 173 -121 l21 -42 59 -1 59 0 -7 46 c-3 26 -6 97 -6 159 l0 111
-750 1 -750 1 0 -58z"/>
<path d="M10169 9991 c-223 -71 -535 -311 -858 -661 -148 -162 -171 -188 -219
-248 -23 -30 -42 -49 -42 -44 0 6 49 160 109 344 60 183 114 354 120 380 24
103 6 175 -54 214 -35 23 -157 30 -226 14 -105 -24 -261 -115 -444 -258 -151
-118 -473 -459 -636 -672 l-27 -35 34 100 c18 55 74 222 125 370 99 294 113
362 85 428 -23 53 -67 77 -141 77 -78 -1 -134 -14 -206 -50 -155 -76 -286
-191 -470 -408 -43 -51 -82 -105 -85 -119 -9 -35 7 -57 42 -61 25 -2 43 11
133 103 119 121 171 160 232 174 64 15 93 -8 97 -75 3 -52 17 -7 -328 -1051
-72 -216 -130 -399 -130 -407 0 -25 40 -54 89 -65 58 -12 166 1 191 24 10 9
28 44 40 78 105 293 117 322 199 487 108 216 238 395 453 623 241 256 386 361
530 382 42 6 50 4 72 -18 23 -23 26 -35 26 -91 0 -96 -28 -191 -240 -822 -106
-313 -195 -582 -197 -597 -10 -56 55 -91 168 -90 74 0 122 24 135 66 24 81
148 376 209 499 140 281 308 507 568 762 178 173 317 270 425 294 51 12 79 6
110 -21 45 -41 37 -71 -198 -737 -235 -667 -239 -683 -200 -760 29 -56 69 -75
160 -74 198 2 381 126 652 441 48 57 88 112 88 122 0 18 -43 61 -60 61 -5 0
-57 -42 -117 -92 -123 -106 -225 -175 -269 -184 -21 -4 -37 0 -54 14 -22 18
-23 22 -13 63 6 24 45 143 88 264 42 121 83 238 90 260 7 22 48 139 90 260
163 465 158 449 159 560 1 113 -10 140 -67 175 -41 26 -158 26 -238 1z"/>
<path d="M7300 7160 l0 -360 1475 0 1475 0 0 360 0 360 -1475 0 -1475 0 0
-360z"/>
<path d="M7307 6284 c-4 -4 -7 -63 -7 -131 0 -139 10 -172 60 -198 37 -19 132
-19 169 -1 42 22 51 54 51 191 l0 125 -40 0 -40 0 0 -118 c0 -130 -9 -152 -62
-152 -48 0 -57 24 -60 160 l-3 125 -30 3 c-17 2 -34 0 -38 -4z"/>
<path d="M8180 6275 c0 -8 24 -77 54 -153 29 -75 57 -147 60 -159 6 -19 15
-23 45 -23 l38 0 61 166 c34 91 62 169 62 175 0 14 -66 11 -77 -3 -6 -7 -25
-50 -44 -95 -19 -45 -36 -83 -39 -83 -3 0 -21 42 -40 93 l-35 92 -43 3 c-33 2
-42 0 -42 -13z"/>
<path d="M7660 6105 l0 -165 40 0 40 0 0 98 c1 109 -4 110 67 -18 40 -73 42
-75 82 -78 l41 -3 0 165 0 166 -40 0 -39 0 -3 -82 -3 -83 -44 83 -45 82 -48 0
-48 0 0 -165z"/>
<path d="M8040 6105 l0 -165 40 0 40 0 0 165 0 165 -40 0 -40 0 0 -165z"/>
<path d="M8540 6100 l0 -170 110 0 110 0 0 35 0 35 -70 0 -70 0 0 35 0 35 55
0 55 0 0 40 0 40 -55 0 c-54 0 -55 0 -55 30 l0 30 65 0 c49 0 65 3 65 14 0 8
3 21 6 30 5 14 -8 16 -105 16 l-111 0 0 -170z"/>
<path d="M8850 6106 l0 -166 40 0 39 0 3 68 3 67 44 -67 43 -68 49 0 c27 0 49
3 49 6 0 3 -20 35 -44 70 l-45 63 30 30 c35 36 40 95 10 132 -17 22 -28 24
-120 27 l-101 4 0 -166z"/>
<path d="M9510 6105 l0 -165 45 0 45 0 0 165 0 165 -45 0 -45 0 0 -165z"/>
<path d="M9690 6105 l0 -165 81 0 c54 0 92 5 115 16 93 44 113 221 33 288 -28
24 -38 26 -130 26 l-99 0 0 -165z m159 86 c22 -16 23 -24 19 -86 -5 -76 -26
-105 -79 -105 l-29 0 0 105 0 105 33 0 c17 0 43 -9 56 -19z"/>
<path d="M10057 6115 c-31 -85 -57 -159 -57 -165 0 -5 18 -10 39 -10 36 0 41
3 52 35 13 34 15 35 64 35 49 0 51 -1 64 -35 12 -33 15 -35 57 -35 24 0 44 3
44 8 0 4 -25 76 -55 161 -30 85 -55 156 -55 158 0 1 -22 3 -48 3 l-48 0 -57
-155z"/>
<path d="M10360 6104 l0 -166 95 4 c89 4 97 6 126 33 17 17 37 45 45 64 28 68
10 166 -39 207 -26 22 -37 24 -128 24 l-99 0 0 -166z m162 92 c22 -17 43 -95
34 -129 -9 -39 -41 -67 -76 -67 l-30 0 0 105 0 105 28 0 c15 0 35 -6 44 -14z"/>
<path d="M10720 6100 l0 -170 110 0 110 0 0 35 0 35 -70 0 -70 0 0 35 0 35 55
0 55 0 0 40 0 40 -55 0 c-54 0 -55 0 -55 30 0 29 0 29 68 32 65 3 67 4 70 31
l3 27 -110 0 -111 0 0 -170z"/>
<path d="M11440 6100 l0 -170 110 0 110 0 0 35 0 35 -70 0 -70 0 0 35 0 35 55
0 55 0 0 40 0 40 -55 0 c-54 0 -55 0 -55 30 l0 30 64 0 c49 0 65 4 70 16 16
42 11 44 -104 44 l-110 0 0 -170z"/>
<path d="M11740 6105 l0 -165 78 0 c90 0 135 18 169 68 46 69 38 179 -17 234
-28 27 -32 28 -129 28 l-101 0 0 -165z m164 86 c27 -30 38 -85 26 -131 -11
-42 -33 -60 -74 -60 l-26 0 0 105 0 105 28 0 c16 0 37 -8 46 -19z"/>
<path d="M12100 6100 l0 -170 110 0 110 0 0 35 0 35 -70 0 -70 0 0 35 0 35 55
0 55 0 0 40 0 40 -55 0 c-54 0 -55 0 -55 30 l0 30 64 0 c49 0 65 4 70 16 16
42 11 44 -104 44 l-110 0 0 -170z"/>
<path d="M12410 6106 l0 -166 40 0 40 0 0 66 c0 58 2 65 15 54 8 -7 29 -37 46
-66 30 -54 31 -54 80 -54 27 0 49 2 49 5 0 3 -20 36 -45 73 -40 61 -43 68 -26
76 46 21 59 112 22 150 -19 18 -36 21 -121 24 l-100 4 0 -166z"/>
<path d="M12815 6258 c-8 -24 -103 -283 -110 -300 -6 -15 -1 -18 34 -18 39 0
43 3 57 35 14 33 17 35 65 35 48 0 51 -2 65 -35 13 -33 17 -35 59 -35 25 0 45
2 45 5 0 3 -25 71 -55 151 -30 81 -55 153 -55 160 0 19 -99 20 -105 2z"/>
<path d="M13080 6105 l0 -165 99 0 c81 0 100 3 105 16 15 39 8 44 -59 44 l-65
0 0 135 0 135 -40 0 -40 0 0 -165z"/>
<path d="M9245 6248 c-36 -19 -55 -52 -55 -95 0 -49 29 -78 89 -89 20 -3 47
-13 59 -21 23 -14 23 -15 6 -34 -21 -23 -77 -25 -119 -3 -28 14 -30 14 -47 -8
-26 -34 -22 -44 21 -56 91 -28 176 -9 225 48 22 27 27 40 22 64 -8 40 -26 52
-108 77 -38 12 -68 26 -68 33 0 35 49 46 110 24 30 -10 35 -9 52 12 10 12 18
25 18 29 0 26 -164 42 -205 19z"/>
<path d="M11170 6095 l0 -165 40 0 40 0 0 69 0 70 48 3 c47 3 47 3 50 41 l3
37 -50 0 c-50 0 -51 1 -51 30 l0 30 60 0 c57 0 60 1 60 25 l0 25 -100 0 -100
0 0 -165z"/>
<path d="M7300 5490 l0 -170 80 0 c118 0 166 30 191 118 22 79 -2 160 -60 199
-29 20 -47 23 -122 23 l-89 0 0 -170z m160 90 c24 -13 34 -60 25 -117 -8 -54
-34 -83 -75 -83 l-30 0 0 105 0 105 31 0 c17 0 39 -4 49 -10z"/>
<path d="M7667 5653 c-4 -3 -7 -82 -7 -175 l0 -168 110 0 110 0 0 35 0 35 -70
0 -70 0 0 40 0 40 55 0 c54 0 55 0 55 30 0 30 -1 30 -55 30 l-55 0 0 35 0 34
68 3 67 3 3 33 3 32 -104 0 c-57 0 -107 -3 -110 -7z"/>
<path d="M8136 5638 c-7 -31 -36 -278 -36 -300 0 -14 9 -18 40 -18 l40 0 1 58
c0 31 3 74 7 95 7 37 8 36 36 -57 l29 -96 37 0 37 0 28 91 c32 106 45 103 45
-13 l0 -76 43 5 c23 3 44 7 46 9 4 4 -18 272 -26 302 -4 19 -12 22 -54 22
l-48 0 -11 -42 c-7 -24 -18 -62 -26 -86 -8 -23 -14 -49 -14 -57 0 -40 -20 -7
-40 68 -33 116 -33 117 -85 117 -38 0 -45 -3 -49 -22z"/>
<path d="M8570 5490 l0 -170 40 0 40 0 0 170 0 170 -40 0 -40 0 0 -170z"/>
<path d="M8750 5491 l0 -171 40 0 39 0 3 93 3 92 48 -92 48 -93 45 0 44 0 -2
168 -3 167 -40 0 -40 0 0 -91 0 -91 -50 91 c-50 91 -50 91 -93 94 l-42 3 0
-170z"/>
<path d="M9126 5503 c-32 -87 -61 -164 -63 -170 -4 -9 8 -13 39 -13 44 0 45 1
57 40 12 39 12 40 60 40 47 0 48 -1 64 -40 15 -39 17 -40 62 -40 34 0 46 4 42
13 -2 6 -31 83 -63 170 l-58 157 -41 0 -41 0 -58 -157z"/>
<path d="M9535 5648 c-60 -13 -85 -42 -85 -97 0 -25 4 -52 9 -60 5 -8 40 -24
77 -37 73 -24 88 -39 58 -61 -23 -17 -66 -17 -109 1 -33 14 -36 14 -50 -7 -8
-12 -15 -26 -15 -32 0 -17 61 -35 118 -35 101 0 162 45 162 119 0 33 -36 65
-86 76 -63 14 -85 27 -82 49 4 28 64 34 108 11 18 -9 33 -15 35 -13 8 9 25 48
25 57 0 22 -109 42 -165 29z"/>
<path d="M9965 5637 c-51 -28 -75 -76 -75 -147 0 -110 62 -170 176 -170 34 0
75 5 93 11 l31 11 0 84 0 84 -75 0 c-67 0 -75 -2 -75 -19 0 -37 12 -51 42 -51
27 0 29 -2 26 -32 -3 -29 -7 -33 -36 -36 -25 -3 -39 3 -62 27 -27 26 -30 36
-30 91 0 51 4 65 25 85 28 29 71 33 114 10 26 -13 30 -13 51 10 l22 24 -33 20
c-48 30 -140 28 -194 -2z"/>
<path d="M10267 5653 c-4 -3 -7 -82 -7 -175 l0 -168 110 0 110 0 0 35 0 35
-70 0 -70 0 0 40 0 40 55 0 c54 0 55 0 55 30 0 30 -1 30 -55 30 l-55 0 0 35 0
35 64 0 c58 0 64 2 70 23 12 47 11 47 -97 47 -57 0 -107 -3 -110 -7z"/>
<path d="M10570 5490 l0 -170 40 0 40 0 0 60 c0 33 4 60 10 60 5 0 27 -27 47
-60 38 -60 38 -60 85 -60 27 0 48 3 48 8 0 4 -20 36 -44 72 -41 62 -42 66 -25
78 48 34 59 111 21 145 -21 18 -107 37 -172 37 l-50 0 0 -170z"/>
<path d="M10926 5503 c-32 -87 -61 -164 -63 -170 -4 -9 8 -13 39 -13 43 0 45
1 58 40 13 39 14 40 60 40 45 0 47 -1 63 -40 15 -39 17 -40 61 -40 25 0 46 2
46 4 0 3 -5 17 -11 33 -6 15 -30 82 -54 148 -24 66 -46 128 -50 138 -5 12 -18
17 -49 17 l-41 0 -59 -157z"/>
<path d="M11237 5654 c-4 -4 -7 -81 -7 -171 l0 -163 45 0 45 0 -2 168 -3 167
-35 3 c-20 2 -39 0 -43 -4z"/>
<path d="M11503 5648 c-60 -13 -97 -58 -90 -111 7 -51 17 -60 100 -87 51 -16
67 -26 65 -38 -7 -36 -75 -39 -148 -8 -10 4 -21 -4 -32 -25 l-18 -30 35 -15
c45 -18 135 -18 183 1 43 18 72 59 72 103 0 37 -24 57 -96 78 -28 8 -59 21
-70 28 -15 12 -16 16 -5 30 17 20 73 21 111 1 27 -14 30 -14 44 7 23 33 20 45
-16 56 -55 17 -91 19 -135 10z"/>
</g>
</svg>
