<?xml version="1.0" standalone="no"?>
<!DOCTYPE svg PUBLIC "-//W3C//DTD SVG 20010904//EN"
 "http://www.w3.org/TR/2001/REC-SVG-20010904/DTD/svg10.dtd">
<svg version="1.0" xmlns="http://www.w3.org/2000/svg"
 width="1536.000000pt" height="1536.000000pt" viewBox="0 0 1536.000000 1536.000000"
 preserveAspectRatio="xMidYMid meet">

<g transform="translate(0.000000,1536.000000) scale(0.100000,-0.100000)"
fill="#000000" stroke="none">
<path d="M12284 10040 c-344 -36 -630 -199 -800 -456 -83 -126 -126 -238 -149
-394 -49 -320 41 -611 259 -838 311 -324 744 -398 1399 -239 l132 33 5 292 5
292 27 26 c19 20 39 28 77 32 l51 5 0 43 0 44 -306 0 -305 0 3 -52 c2 -44 6
-53 23 -56 116 -21 142 -105 127 -412 l-7 -155 -70 -25 c-63 -22 -86 -25 -220
-25 -126 1 -163 4 -229 23 -251 72 -443 261 -525 517 -43 132 -54 205 -53 350
3 386 143 653 407 780 128 61 213 80 370 80 259 0 394 -67 516 -257 l50 -78
59 0 c41 0 60 4 60 13 0 34 -29 350 -32 353 -6 6 -376 74 -483 89 -137 19
-294 25 -391 15z"/>
<path d="M2070 9991 l0 -49 46 -11 c25 -7 57 -19 71 -28 53 -35 53 -35 53
-677 0 -666 2 -695 66 -825 51 -104 127 -177 246 -236 142 -70 246 -89 488
-89 172 0 205 2 280 23 204 55 348 167 429 331 84 173 84 173 91 795 5 494 8
555 24 597 21 56 61 93 116 108 39 11 40 12 40 55 l0 45 -275 0 -275 0 0 -50
c0 -46 2 -50 28 -56 48 -10 80 -25 101 -47 42 -45 53 -94 63 -282 11 -204 2
-791 -13 -905 -32 -230 -125 -364 -298 -428 -88 -33 -300 -43 -404 -18 -138
32 -249 111 -301 213 -62 124 -61 109 -61 785 l0 617 28 29 c17 17 48 35 73
41 l44 11 0 50 0 50 -330 0 -330 0 0 -49z"/>
<path d="M4914 10031 c-2 -2 -4 -25 -4 -51 l0 -47 54 -12 c62 -14 99 -39 121
-81 22 -42 22 -1533 1 -1585 -17 -39 -59 -64 -125 -74 l-46 -6 -3 -48 -3 -47
385 0 386 0 0 45 0 45 -39 0 c-82 0 -140 36 -172 105 -17 37 -19 71 -19 403
l0 363 268 -3 c301 -3 316 -7 355 -80 16 -33 24 -38 53 -38 l34 0 0 190 0 190
-34 0 c-30 0 -37 -5 -53 -37 -22 -45 -57 -71 -109 -83 -21 -5 -148 -10 -281
-10 l-243 0 0 371 0 371 323 -5 c271 -3 331 -7 379 -22 69 -21 128 -69 153
-124 17 -40 19 -41 67 -41 l48 0 0 53 c0 30 -3 101 -6 158 l-7 104 -739 0
c-407 0 -742 -2 -744 -4z"/>
<path d="M10265 10003 c-137 -19 -319 -114 -505 -263 -201 -160 -440 -400
-638 -637 -47 -57 -87 -101 -89 -99 -3 2 51 172 118 378 151 461 159 521 79
579 -71 52 -204 42 -348 -26 -256 -121 -627 -456 -910 -822 -48 -62 -88 -109
-90 -104 -1 4 54 174 123 377 138 404 152 470 120 538 -23 49 -65 70 -140 69
-149 -1 -312 -97 -515 -302 -218 -219 -274 -310 -196 -319 25 -3 42 10 135
106 122 127 191 172 262 172 61 0 74 -16 74 -94 0 -53 -32 -157 -228 -749
-126 -379 -227 -696 -225 -704 12 -63 189 -83 261 -31 10 7 46 92 81 188 78
218 127 328 206 467 123 214 229 350 450 577 228 234 360 324 491 334 62 4 67
3 87 -23 30 -38 29 -112 -2 -240 -14 -55 -113 -363 -221 -685 -108 -321 -195
-594 -193 -605 4 -27 64 -55 131 -62 41 -4 64 -1 98 14 l44 20 84 212 c158
400 284 613 527 891 114 130 276 287 374 362 112 84 190 121 265 126 58 4 66
2 91 -23 24 -24 26 -32 21 -83 -3 -38 -74 -254 -206 -629 -110 -314 -207 -600
-216 -635 -41 -156 26 -239 180 -225 131 12 275 90 419 227 103 97 286 306
286 325 0 17 -35 55 -50 55 -6 0 -32 -20 -58 -44 -154 -143 -309 -244 -356
-232 -31 8 -56 32 -56 56 0 10 93 285 206 612 113 326 212 620 220 653 20 86
18 182 -5 225 -30 56 -102 85 -186 73z"/>
<path d="M7310 7165 l0 -355 1470 0 1470 0 -2 353 -3 352 -1467 3 -1468 2 0
-355z"/>
<path d="M7310 6156 c0 -69 4 -136 10 -150 15 -41 54 -59 127 -60 61 -1 66 1
94 32 29 32 29 33 29 162 l0 130 -35 0 -35 0 0 -129 0 -129 -31 -13 c-27 -10
-36 -10 -58 2 -32 18 -38 45 -40 177 l-1 102 -30 0 -30 0 0 -124z"/>
<path d="M8198 6233 c11 -26 40 -103 66 -170 45 -116 49 -123 75 -123 27 0 31
6 90 160 33 88 61 164 61 170 0 7 -14 10 -32 8 -29 -3 -35 -9 -65 -78 -18 -41
-37 -88 -43 -105 -11 -29 -12 -27 -49 75 l-38 105 -41 3 -42 3 18 -48z"/>
<path d="M7670 6105 l0 -165 35 0 34 0 3 106 3 105 56 -103 c54 -100 57 -103
90 -103 l34 0 0 160 0 160 -32 3 -32 3 -3 -101 -3 -101 -53 100 -53 101 -40 0
-39 0 0 -165z"/>
<path d="M8044 6257 c-2 -7 -3 -80 -2 -162 l3 -150 33 -3 32 -3 0 165 0 166
-30 0 c-17 0 -33 -6 -36 -13z"/>
<path d="M8550 6100 l0 -170 100 0 100 0 0 30 c0 29 0 29 -67 32 l-68 3 0 40
0 40 53 3 c50 3 52 4 52 32 0 28 -2 29 -52 32 l-53 3 0 35 0 35 65 5 c58 4 65
7 68 28 3 22 1 22 -97 22 l-101 0 0 -170z"/>
<path d="M8850 6105 l0 -165 35 0 35 0 0 70 c0 67 1 70 19 60 11 -5 36 -37 56
-70 35 -57 38 -60 76 -60 21 0 39 2 39 6 0 9 -79 122 -90 129 -6 4 4 16 22 28
65 44 58 130 -12 154 -19 7 -68 12 -107 12 l-73 1 0 -165z m164 83 c18 -29 -4
-53 -53 -56 l-41 -3 0 41 0 41 41 -3 c27 -2 46 -9 53 -20z"/>
<path d="M9520 6105 l0 -165 35 0 35 0 0 165 0 165 -35 0 -35 0 0 -165z"/>
<path d="M9700 6105 l0 -165 59 0 c134 0 201 59 201 175 0 113 -48 155 -177
155 l-83 0 0 -165z m134 105 c38 -14 49 -43 41 -113 -9 -71 -37 -107 -85 -107
l-30 0 0 115 0 115 24 0 c14 0 36 -4 50 -10z"/>
<path d="M10111 6243 c-34 -87 -101 -279 -101 -290 0 -10 10 -13 32 -11 26 2
33 9 43 38 12 35 12 35 70 35 58 0 58 0 70 -35 10 -30 16 -35 48 -38 26 -2 37
1 37 10 0 7 -25 80 -55 162 -30 82 -55 151 -55 153 0 2 -17 3 -39 3 -33 0 -40
-4 -50 -27z m72 -120 l15 -53 -40 0 c-34 0 -39 3 -33 18 3 9 11 36 18 59 13
50 19 46 40 -24z"/>
<path d="M10370 6105 l0 -165 59 0 c132 0 201 60 201 175 0 62 -22 111 -62
135 -26 16 -50 20 -115 20 l-83 0 0 -165z m149 100 c33 -16 41 -39 41 -113 0
-64 -30 -102 -80 -102 l-30 0 0 115 c0 109 1 115 20 115 12 0 34 -7 49 -15z"/>
<path d="M10730 6100 l0 -171 103 3 102 3 3 28 3 27 -70 0 -71 0 0 45 0 45 55
0 c54 0 55 0 55 30 0 30 -1 30 -55 30 l-55 0 0 40 0 40 64 0 c60 0 64 1 68 25
l5 25 -103 0 -104 0 0 -170z"/>
<path d="M11450 6100 l0 -171 103 3 102 3 3 28 3 27 -70 0 -71 0 0 45 0 45 55
0 c54 0 55 0 55 30 0 30 -1 30 -55 30 l-55 0 0 40 0 40 65 0 c63 0 65 1 65 25
l0 25 -100 0 -100 0 0 -170z"/>
<path d="M11744 6257 c-2 -7 -3 -80 -2 -162 l3 -150 65 -3 c52 -2 74 2 109 20
69 35 86 66 86 151 0 80 -18 117 -66 143 -37 19 -187 20 -195 1z m163 -61 c26
-22 28 -30 28 -95 0 -83 -12 -100 -74 -108 l-41 -6 0 117 0 116 29 0 c17 0 42
-10 58 -24z"/>
<path d="M12110 6100 l0 -170 100 0 100 0 0 30 0 30 -65 0 -65 0 0 44 0 45 53
3 c48 3 52 5 52 28 0 23 -4 25 -52 28 l-53 3 0 40 0 39 65 0 c63 0 65 1 65 25
l0 25 -100 0 -100 0 0 -170z"/>
<path d="M12412 6108 l3 -163 33 -3 32 -3 0 71 c0 67 1 70 19 60 11 -5 36 -37
57 -70 35 -57 39 -60 75 -60 22 0 39 3 39 8 0 4 -20 36 -44 72 l-43 64 34 32
c23 22 33 40 33 60 0 66 -51 94 -173 94 l-67 0 2 -162z m162 80 c18 -29 -4
-53 -53 -56 l-41 -3 0 41 0 41 41 -3 c27 -2 46 -9 53 -20z"/>
<path d="M12826 6262 c-5 -9 -116 -312 -116 -318 0 -2 16 -4 35 -4 31 0 35 3
46 40 l12 40 57 0 57 0 16 -40 c14 -36 19 -40 51 -40 20 0 36 3 36 6 0 4 -26
78 -57 165 l-58 159 -37 0 c-20 0 -39 -4 -42 -8z m48 -126 c9 -30 16 -57 16
-60 0 -3 -16 -6 -35 -6 -19 0 -35 4 -35 8 0 14 30 112 35 112 2 0 11 -24 19
-54z"/>
<path d="M13080 6105 l0 -165 93 0 c90 0 94 1 105 25 l12 25 -70 0 -70 0 0
140 0 140 -35 0 -35 0 0 -165z"/>
<path d="M9273 6254 c-12 -3 -33 -16 -47 -29 -21 -19 -26 -33 -26 -70 0 -40 4
-47 32 -65 17 -10 48 -22 69 -25 45 -8 63 -26 54 -54 -9 -29 -66 -38 -117 -17
-38 15 -42 14 -54 -2 -20 -26 -12 -36 42 -50 72 -19 143 -2 183 44 60 67 38
105 -79 140 -26 8 -54 21 -61 30 -11 14 -10 19 10 35 27 22 66 24 101 4 33
-19 35 -19 48 10 10 21 9 26 -7 35 -22 11 -117 20 -148 14z"/>
<path d="M11172 6098 l3 -163 33 -3 32 -3 0 75 0 76 50 0 c49 0 50 1 50 30 0
29 -1 30 -50 30 l-50 0 0 40 0 40 59 0 c55 0 71 8 71 36 0 2 -45 4 -100 4
l-100 0 2 -162z"/>
<path d="M7373 5652 l-63 -3 0 -164 0 -165 59 0 c132 0 201 60 201 175 0 116
-60 164 -197 157z m86 -67 c34 -17 43 -53 32 -126 -10 -63 -38 -92 -85 -87
l-31 3 -3 99 c-1 55 0 106 2 113 7 17 50 17 85 -2z"/>
<path d="M8340 5558 c-38 -127 -42 -135 -46 -123 -1 6 -17 56 -34 113 l-31
102 -44 0 c-36 0 -45 -4 -45 -17 -1 -10 -9 -82 -18 -161 -10 -78 -16 -145 -13
-147 2 -3 16 -5 31 -5 25 0 28 4 34 46 3 26 6 81 7 123 l1 76 40 -122 c38
-120 40 -123 68 -123 28 0 30 4 67 118 l38 117 2 -60 c2 -33 5 -84 9 -113 l6
-53 36 3 c26 2 36 8 35 18 -1 8 -7 81 -13 163 l-13 147 -43 0 -43 0 -31 -102z"/>
<path d="M10009 5650 c-75 -22 -112 -75 -112 -160 0 -129 93 -188 246 -157
l37 8 0 79 0 80 -71 0 c-61 0 -70 -2 -65 -16 3 -9 6 -20 6 -25 0 -5 14 -9 31
-9 29 0 30 -1 27 -42 -3 -38 -6 -43 -28 -46 -43 -5 -94 37 -104 85 -25 117 48
195 138 148 28 -15 31 -14 50 4 l20 20 -45 20 c-46 21 -86 25 -130 11z"/>
<path d="M7670 5480 l0 -171 103 3 102 3 3 28 3 27 -70 0 -71 0 0 45 0 45 55
0 c54 0 55 0 55 30 0 30 -1 30 -55 30 l-55 0 0 40 0 40 65 0 c63 0 65 1 65 25
l0 25 -100 0 -100 0 0 -170z"/>
<path d="M8580 5485 l0 -165 30 0 30 0 0 165 0 165 -30 0 -30 0 0 -165z"/>
<path d="M8752 5488 l3 -163 33 -3 32 -3 0 113 1 113 60 -112 c59 -110 61
-113 95 -113 l34 0 0 165 0 165 -36 0 -36 0 4 -106 c1 -58 -1 -100 -5 -92 -5
7 -31 55 -58 106 l-50 92 -40 0 -39 0 2 -162z"/>
<path d="M9186 5641 c-7 -11 -116 -309 -116 -316 0 -3 15 -5 33 -5 30 0 35 4
47 40 l13 40 57 0 57 0 13 -40 c12 -37 16 -40 52 -40 21 0 38 3 38 8 -1 4 -27
77 -58 162 l-57 155 -37 3 c-20 2 -39 -1 -42 -7z m73 -178 c1 -8 -12 -13 -34
-13 -40 0 -42 6 -18 75 l16 50 18 -50 c10 -28 18 -56 18 -62z"/>
<path d="M9510 5632 c-46 -23 -65 -58 -56 -104 7 -39 39 -61 111 -76 52 -10
68 -37 36 -63 -27 -22 -61 -24 -113 -5 -35 13 -38 12 -53 -10 -15 -23 -15 -24
40 -39 88 -26 182 2 211 63 26 56 7 81 -86 112 -66 23 -75 29 -75 50 0 37 44
49 101 28 42 -15 45 -15 54 2 16 31 12 37 -34 49 -62 15 -95 14 -136 -7z"/>
<path d="M10270 5480 l0 -170 100 0 100 0 0 30 0 30 -65 0 -65 0 0 44 0 45 53
3 c48 3 52 5 55 31 3 27 2 27 -52 27 l-56 0 0 40 0 40 65 0 c63 0 65 1 65 25
l0 25 -100 0 -100 0 0 -170z"/>
<path d="M10572 5488 l3 -163 33 -3 32 -3 0 71 c0 67 1 70 19 60 11 -5 36 -37
57 -70 35 -57 39 -60 75 -60 22 0 39 3 39 8 0 4 -20 36 -44 72 l-43 64 34 32
c23 22 33 40 33 60 0 66 -51 94 -173 94 l-67 0 2 -162z m162 80 c18 -29 -4
-53 -53 -56 l-41 -3 0 41 0 41 41 -3 c27 -2 46 -9 53 -20z"/>
<path d="M10986 5642 c-5 -9 -116 -312 -116 -318 0 -2 16 -4 35 -4 31 0 35 3
46 40 l12 40 57 0 57 0 16 -40 c14 -36 19 -40 51 -40 20 0 36 3 36 6 0 4 -26
78 -57 165 l-58 159 -37 0 c-20 0 -39 -4 -42 -8z m58 -126 c9 -30 16 -57 16
-60 0 -3 -16 -6 -35 -6 -22 0 -35 5 -35 13 0 15 30 107 35 107 2 0 11 -24 19
-54z"/>
<path d="M11240 5485 l0 -165 35 0 35 0 0 165 0 165 -35 0 -35 0 0 -165z"/>
<path d="M11484 5636 c-39 -17 -64 -52 -64 -89 0 -49 17 -65 89 -88 76 -23 91
-39 61 -69 -23 -23 -59 -25 -113 -6 -35 13 -38 12 -52 -7 -14 -20 -13 -22 13
-36 15 -8 54 -15 88 -15 71 0 119 23 147 72 16 27 17 35 5 59 -10 22 -28 33
-88 53 -66 23 -75 29 -75 50 0 37 44 49 101 28 42 -15 45 -15 55 3 13 26 5 36
-39 49 -49 13 -90 12 -128 -4z"/>
</g>
</svg>
