<?xml version="1.0" encoding="UTF-8"?>
<!DOCTYPE svg PUBLIC "-//W3C//DTD SVG 1.1//EN" "http://www.w3.org/Graphics/SVG/1.1/DTD/svg11.dtd">
<svg xmlns="http://www.w3.org/2000/svg" version="1.1" width="256" height="94" style="shape-rendering:geometricPrecision; text-rendering:geometricPrecision; image-rendering:optimizeQuality; fill-rule:evenodd; clip-rule:evenodd" xmlns:xlink="http://www.w3.org/1999/xlink">
<g><path style="opacity:1" fill="#fefdfd" d="M -0.5,-0.5 C 84.8333,-0.5 170.167,-0.5 255.5,-0.5C 255.5,30.8333 255.5,62.1667 255.5,93.5C 170.167,93.5 84.8333,93.5 -0.5,93.5C -0.5,62.1667 -0.5,30.8333 -0.5,-0.5 Z"/></g>
<g><path style="opacity:1" fill="#222023" d="M 24.5,13.5 C 37.6201,10.804 47.4534,15.1373 54,26.5C 56.6567,43.3418 49.49,52.3418 32.5,53.5C 28.0874,53.2487 23.7541,52.582 19.5,51.5C 19.6655,47.4862 19.4988,43.4862 19,39.5C 18.0754,38.9535 17.2421,38.2868 16.5,37.5C 20.5,36.1667 24.5,36.1667 28.5,37.5C 27.7579,38.2868 26.9246,38.9535 26,39.5C 22.8333,49.6667 26.3333,53.1667 36.5,50C 44.2875,46.8531 47.9542,41.0198 47.5,32.5C 46.4046,20.2374 39.7379,14.7374 27.5,16C 24.566,18.4607 21.566,20.6274 18.5,22.5C 18.3367,20.1432 18.5034,17.8098 19,15.5C 20.9483,14.8906 22.7816,14.224 24.5,13.5 Z"/></g>
<g><path style="opacity:1" fill="#5d5b5e" d="M 152.5,14.5 C 162.341,13.1771 172.341,13.1771 182.5,14.5C 182.376,15.1067 182.043,15.44 181.5,15.5C 172.014,14.5062 162.348,14.1729 152.5,14.5 Z"/></g>
<g><path style="opacity:1" fill="#7e7c7e" d="M 200.5,14.5 C 203.962,13.5184 207.629,13.185 211.5,13.5C 211.715,15.1788 211.048,16.1788 209.5,16.5C 209.611,15.8826 209.944,15.3826 210.5,15C 207.183,14.5017 203.85,14.335 200.5,14.5 Z"/></g>
<g><path style="opacity:1" fill="#cb1924" d="M 72.5,14.5 C 76.9112,14.2028 80.9112,15.3694 84.5,18C 90.3333,22.5 95.5,27.6667 100,33.5C 98.8422,28.1777 97.3422,22.8444 95.5,17.5C 95.6082,16.5581 95.9415,15.7247 96.5,15C 100.909,14.1954 104.909,15.1954 108.5,18C 113,22.5 117.5,27 122,31.5C 121.188,26.8335 120.021,22.1668 118.5,17.5C 118.608,16.5581 118.941,15.7247 119.5,15C 122.783,14.2571 125.783,14.9238 128.5,17C 131.35,19.6824 134.016,22.5157 136.5,25.5C 136.167,25.8333 135.833,26.1667 135.5,26.5C 133.684,25.1851 132.017,23.6851 130.5,22C 129.207,21.51 127.873,21.3433 126.5,21.5C 129.167,31.8333 131.833,42.1667 134.5,52.5C 132.712,52.7852 131.045,52.4519 129.5,51.5C 126.044,40.0889 119.71,30.5889 110.5,23C 108.323,21.7978 105.989,21.2978 103.5,21.5C 105.684,31.7201 108.684,41.7201 112.5,51.5C 110.5,52.8333 108.5,52.8333 106.5,51.5C 102.649,39.945 95.9827,30.445 86.5,23C 84.3225,21.7978 81.9892,21.2978 79.5,21.5C 82.032,30.2388 84.8653,38.9055 88,47.5C 89.2399,50.9065 88.0732,52.5731 84.5,52.5C 78.5987,50.709 73.932,47.209 70.5,42C 73.9,43.2026 77.2333,44.7026 80.5,46.5C 78.1788,37.7025 75.3455,29.0358 72,20.5C 71.3224,18.4024 71.4891,16.4024 72.5,14.5 Z"/></g>
<g><path style="opacity:1" fill="#242125" d="M 152.5,14.5 C 162.348,14.1729 172.014,14.5062 181.5,15.5C 180.542,15.9528 179.708,16.6195 179,17.5C 178.333,28.1667 178.333,38.8333 179,49.5C 180.205,50.0712 181.372,50.7379 182.5,51.5C 177.5,52.8333 172.5,52.8333 167.5,51.5C 168.628,50.7379 169.795,50.0712 171,49.5C 171.499,44.1771 171.666,38.8437 171.5,33.5C 166.891,32.974 162.557,33.6407 158.5,35.5C 157.167,33.1667 157.167,30.8333 158.5,28.5C 162.582,30.3462 166.915,31.0128 171.5,30.5C 171.5,25.8333 171.5,21.1667 171.5,16.5C 166.489,16.3341 161.489,16.5007 156.5,17C 153.403,20.3298 152.07,19.4964 152.5,14.5 Z"/></g>
<g><path style="opacity:1" fill="#262327" d="M 200.5,14.5 C 203.85,14.335 207.183,14.5017 210.5,15C 209.944,15.3826 209.611,15.8826 209.5,16.5C 208.883,16.6107 208.383,16.944 208,17.5C 207.333,25.8333 207.333,34.1667 208,42.5C 209.312,47.3083 212.479,49.6416 217.5,49.5C 222.969,49.9721 226.469,47.6388 228,42.5C 228.667,33.8333 228.667,25.1667 228,16.5C 227.075,15.9535 226.242,15.2868 225.5,14.5C 229.833,13.1667 234.167,13.1667 238.5,14.5C 237.758,15.2868 236.925,15.9535 236,16.5C 235.924,26.5732 235.258,36.5732 234,46.5C 232.062,49.1059 229.562,50.9392 226.5,52C 221.833,52.6667 217.167,52.6667 212.5,52C 209.333,50.1667 206.833,47.6667 205,44.5C 203.785,35.5601 203.118,26.5601 203,17.5C 201.583,16.9221 200.75,15.9221 200.5,14.5 Z"/></g>
<g><path style="opacity:1" fill="#c90a1d" d="M 76.5,63.5 C 95.8333,63.5 115.167,63.5 134.5,63.5C 134.5,68.1667 134.5,72.8333 134.5,77.5C 115.167,77.5 95.8333,77.5 76.5,77.5C 76.5,72.8333 76.5,68.1667 76.5,63.5 Z"/></g>
</svg>
